<svg version="1.1" xmlns="http://www.w3.org/2000/svg" xmlns:xlink="http://www.w3.org/1999/xlink" x="0px" y="0px"
	 viewBox="0 0 310.861 310.861" style="enable-background:new 0 0 310.861 310.861;" xml:space="preserve">
<g>
	<path fill="currentColor" style="fill-rule:evenodd;clip-rule:evenodd;" d="M172.774,117.379h-2.896c-0.148,0-0.294,0.035-0.426,0.105l-5.485,2.936
		c-0.367,0.197-0.552,0.617-0.449,1.02l0.655,2.59c0.068,0.268,0.259,0.493,0.514,0.604c0.255,0.112,0.548,0.102,0.793-0.03
		l3.111-1.682v20.475c0,0.5,0.404,0.904,0.901,0.904h3.282c0.502,0,0.906-0.404,0.906-0.904v-25.114
		C173.68,117.783,173.276,117.379,172.774,117.379z"/>
	<path fill="currentColor" style="fill-rule:evenodd;clip-rule:evenodd;" d="M170.499,70.584c-5.945,0-9.639,5.349-9.639,13.969
		c0.081,8.515,3.609,13.802,9.211,13.802c6.123,0,9.637-5.161,9.637-14.156C179.708,75.674,176.264,70.584,170.499,70.584z
		 M170.264,93.92c-2.588,0-4.195-3.577-4.195-9.334c0-5.815,1.66-9.572,4.236-9.572c3.65,0,4.195,5.852,4.195,9.337
		C174.5,87.926,173.952,93.92,170.264,93.92z"/>
	<path fill="currentColor" style="fill-rule:evenodd;clip-rule:evenodd;" d="M190.318,116.954c-5.941,0-9.633,5.349-9.633,13.969
		c0.078,8.516,3.607,13.802,9.21,13.802c6.121,0,9.633-5.161,9.633-14.156C199.529,122.045,196.085,116.954,190.318,116.954z
		 M190.089,140.292c-2.593,0-4.2-3.577-4.2-9.336c0-5.815,1.663-9.569,4.236-9.569c3.654,0,4.2,5.849,4.2,9.335
		C194.325,134.298,193.772,140.292,190.089,140.292z"/>
	<path fill="currentColor" style="fill-rule:evenodd;clip-rule:evenodd;" d="M150.672,116.954c-5.945,0-9.636,5.349-9.636,13.969
		c0.08,8.516,3.611,13.802,9.211,13.802c6.125,0,9.634-5.161,9.634-14.156C159.881,122.045,156.44,116.954,150.672,116.954z
		 M150.44,140.292c-2.589,0-4.197-3.577-4.197-9.336c0-5.815,1.664-9.569,4.237-9.569c3.652,0,4.197,5.849,4.197,9.335
		C154.677,134.298,154.126,140.292,150.44,140.292z"/>
	<path fill="currentColor" style="fill-rule:evenodd;clip-rule:evenodd;" d="M113.306,71.006h-2.899c-0.148,0-0.292,0.036-0.423,0.106l-5.489,2.937
		c-0.364,0.198-0.549,0.617-0.45,1.018l0.657,2.593c0.069,0.268,0.257,0.493,0.512,0.603c0.256,0.11,0.549,0.101,0.792-0.032
		l3.113-1.678v20.473c0,0.499,0.404,0.903,0.901,0.903h3.286c0.5,0,0.905-0.404,0.905-0.903V71.912
		C114.211,71.411,113.807,71.006,113.306,71.006z"/>
	<path fill="currentColor" style="fill-rule:evenodd;clip-rule:evenodd;" d="M212.423,117.379h-2.9c-0.149,0-0.292,0.035-0.423,0.105l-5.488,2.936
		c-0.364,0.197-0.549,0.617-0.45,1.02l0.657,2.59c0.07,0.268,0.257,0.493,0.512,0.604c0.256,0.112,0.549,0.102,0.792-0.03
		l3.112-1.681v20.474c0,0.5,0.404,0.904,0.901,0.904h3.287c0.499,0,0.903-0.404,0.903-0.904v-25.114
		C213.326,117.783,212.922,117.379,212.423,117.379z"/>
	<path fill="currentColor" style="fill-rule:evenodd;clip-rule:evenodd;" d="M133.128,71.006h-2.896c-0.148,0-0.296,0.036-0.428,0.106l-5.485,2.937
		c-0.367,0.198-0.553,0.617-0.448,1.018l0.655,2.593c0.067,0.268,0.258,0.493,0.513,0.603c0.255,0.11,0.545,0.101,0.791-0.032
		l3.112-1.679v20.474c0,0.499,0.404,0.903,0.904,0.903h3.282c0.5,0,0.904-0.404,0.904-0.903V71.912
		C134.032,71.411,133.627,71.006,133.128,71.006z"/>
	<path fill="currentColor" style="fill-rule:evenodd;clip-rule:evenodd;" d="M144.35,77.66c0.069,0.268,0.255,0.493,0.51,0.603
		c0.254,0.11,0.548,0.101,0.792-0.032l3.113-1.678v20.473c0,0.499,0.404,0.903,0.902,0.903h3.287c0.498,0,0.902-0.404,0.902-0.903
		V71.912c0-0.501-0.404-0.906-0.902-0.906h-2.9c-0.149,0-0.294,0.036-0.425,0.106l-5.489,2.937c-0.363,0.198-0.549,0.617-0.45,1.018
		L144.35,77.66z"/>
	<path fill="currentColor" style="fill-rule:evenodd;clip-rule:evenodd;" d="M190.318,70.584c-5.941,0-9.633,5.349-9.633,13.969
		c0.078,8.515,3.607,13.802,9.21,13.802c6.121,0,9.633-5.161,9.633-14.156C199.529,75.674,196.085,70.584,190.318,70.584z
		 M190.089,93.92c-2.593,0-4.2-3.577-4.2-9.334c0-5.815,1.663-9.572,4.236-9.572c3.654,0,4.2,5.852,4.2,9.337
		C194.325,87.926,193.772,93.92,190.089,93.92z"/>
	<path fill="currentColor" style="fill-rule:evenodd;clip-rule:evenodd;" d="M232.244,117.379h-2.896c-0.148,0-0.296,0.035-0.428,0.105l-5.485,2.936
		c-0.368,0.198-0.554,0.617-0.449,1.02l0.656,2.59c0.067,0.268,0.259,0.493,0.514,0.603c0.255,0.112,0.545,0.102,0.791-0.03
		l3.111-1.681v20.474c0,0.5,0.404,0.904,0.903,0.904h3.282c0.499,0,0.904-0.404,0.904-0.904v-25.114
		C233.148,117.783,232.744,117.379,232.244,117.379z"/>
	<path fill="currentColor" style="fill-rule:evenodd;clip-rule:evenodd;" d="M266.778,44.852C243.521,15.929,209.92,0,172.163,0
		c-27.003,0-54.105,8.454-76.307,23.804C72.122,40.213,55.506,63.069,47.806,89.904c-3.04,10.603-4.606,19.408-5.99,27.178
		c-2.863,16.1-4.935,27.73-17.672,46.519c-3.378,4.983-4.459,9.75-3.21,14.166c1.975,6.987,8.668,10.009,14.048,12.436
		c1.795,0.812,4.802,2.168,5.48,2.92c3.234,4.052,2.951,15.274,2.701,25.176c-0.356,14.13-0.725,28.741,6.29,39.287
		c9.811,14.745,24.984,14.905,37.175,15.034c14.303,0.151,20.83,0.221,22.319,16.157c0.03,0.393,0.091,2.096,0.145,3.599
		c0.383,10.504,0.549,11.93,1.087,13.463c1.061,3.01,3.904,5.023,7.096,5.023h134.139c2.588,0,4.994-1.331,6.371-3.524
		c1.377-2.193,1.527-4.94,0.402-7.271c-16.91-35.016-3.066-70.955,11.592-109.005c8.908-23.126,18.121-47.038,20.214-71.242
		C292.414,91.813,284.82,67.29,266.778,44.852z M206.165,33.494c2.708,1.052,5.366,2.215,7.966,3.481
		c0.013,0.351,0.015,0.687,0.015,1.006c0,3.574-0.549,9.568-4.236,9.568c-2.587,0-4.196-3.577-4.196-9.334
		C205.713,36.429,205.872,34.839,206.165,33.494z M170.305,28.643c3.65,0,4.195,5.852,4.195,9.337c0,3.574-0.549,9.568-4.236,9.568
		c-2.588,0-4.195-3.577-4.195-9.334C166.069,32.4,167.729,28.643,170.305,28.643z M126.499,36.095
		c0.209-0.113,0.41-0.222,0.616-0.334c2.311-1.241,4.693-2.352,7.127-3.346c0.492,1.816,0.612,3.944,0.612,5.564
		c0,3.574-0.551,9.568-4.236,9.568c-2.59,0-4.198-3.577-4.198-9.334C126.42,37.471,126.446,36.764,126.499,36.095z M107.326,125.164
		c0.724-2.388,1.946-3.776,3.508-3.776c1.819,0,2.867,1.45,3.46,3.34C112.084,124.808,109.726,125.061,107.326,125.164z
		 M253.702,132.182c-0.24,0.122-0.481,0.218-0.73,0.299v-14.198c0-0.499-0.404-0.903-0.901-0.903h-2.899
		c-0.149,0-0.296,0.035-0.426,0.105l-5.488,2.936c-0.363,0.197-0.549,0.617-0.449,1.02l0.659,2.59
		c0.069,0.268,0.255,0.493,0.511,0.604c0.254,0.112,0.547,0.102,0.791-0.03l3.112-1.681v9.847c-1.645,0.053-3.016,0.492-3.614,2.668
		c-1.097,4.841-3.356,9.057-6.777,12.638c-7.576,7.053-31.778,5.607-31.778,5.607s-1.588,1.142-0.654,12.337l-1.447,0.773
		c-0.364,0.197-0.549,0.616-0.45,1.019l0.657,2.59c0.07,0.268,0.257,0.493,0.512,0.603c0.255,0.112,0.549,0.102,0.792-0.03
		l0.416-0.227c0.038,0.343,0.081,0.685,0.126,1.039c0.93,7.519-4.868,9.794-12.164,7.011v-14.144c0-0.499-0.403-0.903-0.901-0.903
		h-2.896c-0.15,0-0.299,0.036-0.429,0.106l-5.487,2.936c-0.365,0.197-0.55,0.616-0.447,1.019l0.658,2.59
		c0.066,0.268,0.256,0.493,0.51,0.603c0.256,0.112,0.545,0.102,0.791-0.03l3.111-1.68v6.857
		c-7.577-4.967-15.472-14.784-18.709-29.29c-1.699-7.613-15.45,5.445-24.106,2.927c-6.317-1.833-10.64-2.787-13.708-5.487h1.241
		c0.5,0,0.904-0.404,0.904-0.904v-25.114c0-0.499-0.404-0.903-0.904-0.903h-2.896c-0.148,0-0.296,0.035-0.428,0.105l-5.485,2.936
		c-0.367,0.197-0.553,0.617-0.448,1.02l0.655,2.59c0.067,0.268,0.258,0.493,0.513,0.604c0.255,0.112,0.545,0.102,0.791-0.03
		l3.112-1.681v17.481c-0.916-1.798-1.67-4.048-2.31-6.946c-1.171-5.333-3.693-7.532-6.967-8.341
		c-1.199-5.191-4.24-8.161-8.638-8.161c-4.436,0-7.614,2.979-8.944,8.071c-2.663-0.319-5.281-1.116-7.698-2.825v-3.918
		c0-0.499-0.404-0.903-0.901-0.903h-2.898c-0.149,0-0.297,0.035-0.428,0.105l-0.23,0.123c-5.123-7.163-8.148-18.814-7.691-27.391
		c1.275,5.128,4.317,8.138,8.543,8.138c6.122,0,9.633-5.161,9.633-14.156c0-8.525-3.443-13.616-9.21-13.616
		c-1.235,0-2.366,0.243-3.394,0.687c4.966-10.767,11.986-18.168,21.311-24.733v4.116c0,0.499,0.404,0.903,0.901,0.903h3.286
		c0.5,0,0.905-0.404,0.905-0.903v-7.491c2.228-1.398,4.571-2.783,7.032-4.172c0.291,8.032,3.762,12.993,9.183,12.993
		c6.121,0,9.636-5.161,9.636-14.156c0-2.778-0.372-5.186-1.064-7.176c1.589-0.532,3.197-1.015,4.824-1.454l0.529,2.09
		c0.069,0.268,0.255,0.493,0.51,0.604c0.254,0.111,0.548,0.1,0.792-0.032l3.113-1.679v20.473c0,0.499,0.404,0.903,0.902,0.903h3.287
		c0.498,0,0.902-0.404,0.902-0.903V27.148c3.678-0.535,7.409-0.844,11.167-0.94c-2.645,2.294-4.163,6.46-4.163,11.973
		c0.081,8.515,3.609,13.802,9.211,13.802c6.123,0,9.637-5.161,9.637-14.156c0-5.133-1.255-9.007-3.506-11.286
		c2.642,0.22,5.282,0.543,7.912,0.966l-0.327,0.171c-0.365,0.198-0.55,0.616-0.447,1.017l0.658,2.592
		c0.066,0.268,0.256,0.493,0.51,0.604c0.256,0.111,0.545,0.1,0.791-0.032l3.111-1.679v20.474c0,0.499,0.405,0.903,0.906,0.903h3.283
		c0.497,0,0.901-0.404,0.901-0.903V29.442c2.647,0.671,5.268,1.449,7.857,2.313c-0.551,1.86-0.853,4.007-0.853,6.426
		c0.08,8.515,3.612,13.802,9.211,13.802c5.695,0,9.124-4.465,9.58-12.32c3.031,1.689,5.954,3.536,8.763,5.521v5.47
		c0,0.499,0.404,0.903,0.903,0.903h3.282c0.499,0,0.904-0.404,0.904-0.903v-1.603c7.575,6.179,14.032,13.498,18.854,21.815
		c-0.694-0.183-1.429-0.282-2.213-0.282c-5.943,0-9.635,5.349-9.635,13.969c0.079,8.515,3.611,13.802,9.211,13.802
		c5.211,0,8.521-3.749,9.395-10.405C263.067,104.022,265.141,126.344,253.702,132.182z M86.773,84.586
		c0-5.815,1.663-9.572,4.236-9.572c3.654,0,4.2,5.852,4.2,9.337c0,3.575-0.553,9.569-4.237,9.569
		C88.381,93.92,86.773,90.343,86.773,84.586z M253.794,84.352c0,3.575-0.553,9.569-4.237,9.569c-2.591,0-4.199-3.577-4.199-9.334
		c0-5.815,1.665-9.572,4.236-9.572C253.249,75.014,253.794,80.866,253.794,84.352z"/>
	<path fill="currentColor" style="fill-rule:evenodd;clip-rule:evenodd;" d="M232.244,71.006h-2.896c-0.148,0-0.296,0.036-0.428,0.106l-5.485,2.937
		c-0.368,0.198-0.554,0.617-0.449,1.018l0.656,2.593c0.067,0.268,0.259,0.493,0.514,0.603c0.255,0.11,0.545,0.101,0.791-0.032
		l3.111-1.678v20.473c0,0.499,0.404,0.903,0.903,0.903h3.282c0.499,0,0.904-0.404,0.904-0.903V71.912
		C233.148,71.411,232.744,71.006,232.244,71.006z"/>
	<path fill="currentColor" style="fill-rule:evenodd;clip-rule:evenodd;" d="M210.143,70.584c-5.945,0-9.638,5.349-9.638,13.969
		c0.08,8.515,3.612,13.802,9.211,13.802c6.126,0,9.636-5.161,9.636-14.156C219.352,75.674,215.911,70.584,210.143,70.584z
		 M209.909,93.92c-2.587,0-4.196-3.577-4.196-9.334c0-5.815,1.664-9.572,4.236-9.572c3.651,0,4.196,5.852,4.196,9.337
		C214.145,87.926,213.597,93.92,209.909,93.92z"/>
</g>
</svg>
