<svg version="1.1" xmlns="http://www.w3.org/2000/svg" xmlns:xlink="http://www.w3.org/1999/xlink" x="0px" y="0px"
	 viewBox="0 0 309.133 309.133" style="enable-background:new 0 0 309.133 309.133;" xml:space="preserve">
<g>
	<path fill="currentColor" d="M30.078,172.934c23.695-34.108,37.633-56.082,47.795-72.321c-39.053,3.454-76.486,52.048-76.486,52.048l25.777,25.776
		C27.912,176.531,28.867,174.68,30.078,172.934z"/>
	<path fill="currentColor" d="M130.723,281.997l25.76,25.759c0,0,48.592-37.43,52.047-76.482c-16.234,10.158-38.201,24.091-72.32,47.792
		C134.484,280.264,132.644,281.242,130.723,281.997z"/>
	<path fill="currentColor" d="M91.549,268.678c-4.422,1.787-8.768,3.686-13.299,5.2c-12.102,4.045-24.566,6.778-37.203,8.522
		c-5.297,0.731-10.643,1.351-15.998,1.757c0.051-0.661,0.1-1.323,0.156-1.983c1.105-12.876,3.064-25.685,6.229-38.223
		c1.525-6.051,3.471-11.933,5.56-17.807c1.299-3.652,2.92-7.147,4.555-10.642l-2.834-2.832c-6.303,4.234-11.785,9.584-16.437,15.637
		c-6.887,8.963-12.049,19.117-15.658,29.817c-3.877,11.489-6.189,23.657-6.549,35.787c-0.051,1.704-0.168,3.445,0.096,5.136
		c0.34,2.184,1.299,4.251,2.74,5.926c1.426,1.657,3.303,2.908,5.383,3.579c1.746,0.563,3.502,0.573,5.313,0.559
		c11.012-0.092,22.195-2.005,32.736-5.137c19.279-5.728,38.742-16.504,50.15-33.532l-2.758-2.756
		C93.008,268.026,92.283,268.359,91.549,268.678z"/>
	<path fill="currentColor" d="M306.004,3.149c0,0-0.002-0.001-0.004-0.003c-2.006-2.005-4.725-3.128-7.555-3.128c-0.07,0-0.141,0.001-0.211,0.002
		c-34.41,0.675-119.307,7.111-164.393,52.199c-20.467,20.467-27.119,31.121-41.699,54.469c-10.5,16.81-24.875,39.835-51.147,77.649
		c-2.951,4.25-2.438,10.003,1.221,13.66l68.928,68.929c2.068,2.069,4.807,3.133,7.564,3.133c2.119,0,4.248-0.628,6.096-1.911
		c37.828-26.278,60.844-40.65,77.648-51.146c23.346-14.579,34.002-21.233,54.473-41.702c45.166-45.168,51.557-130.009,52.205-164.39
		C309.187,8.007,308.057,5.205,306.004,3.149z M226.187,133.206c-13.877,13.876-36.373,13.876-50.25,0
		c-13.879-13.877-13.877-36.372,0.002-50.248c13.875-13.877,36.371-13.879,50.248-0.003
		C240.06,96.831,240.062,119.331,226.187,133.206z"/>
</g>

</svg>
